<svg width="24" height="24" viewBox="0 0 24 24" fill="none" xmlns="http://www.w3.org/2000/svg">
<g id="icon">
<g id="Group">
<g id="Group_2">
<path id="Path" fill-rule="evenodd" clip-rule="evenodd" d="M7.49797 2.99609H16.5057C18.9898 2.99609 21.0036 5.00993 21.0036 7.49397V16.5067C21.0036 18.9898 18.9898 21.0036 16.5057 21.0036H7.49397C5.00993 21.0036 2.99609 18.9898 2.99609 16.5057V7.49797C2.99609 5.01193 5.01193 2.99609 7.49797 2.99609Z" fill="#FF7399" stroke="#99002A" stroke-width="1.5" stroke-linecap="round" stroke-linejoin="round"/>
<path id="Path_2" d="M7.49805 10.1562V17.0011H16.6018V10.2263" stroke="#99002A" stroke-width="1.5" stroke-linecap="round" stroke-linejoin="round"/>
<path id="Path_3" d="M6.29688 10.9997L11.9993 6.99805L17.7016 10.9997" stroke="#99002A" stroke-width="1.5" stroke-linecap="round" stroke-linejoin="round"/>
<path id="Path_4" d="M13.651 17.0012V14.2001C13.651 13.5998 13.1508 13.0996 12.5505 13.0996H11.4501C10.8498 13.0996 10.3496 13.5998 10.3496 14.2001V17.0012" stroke="#99002A" stroke-width="1.5" stroke-linecap="round" stroke-linejoin="round"/>
</g>
</g>
</g>
</svg>
